<?xml version="1.0" encoding="UTF-8"?>
<svg xmlns="http://www.w3.org/2000/svg" xmlns:xlink="http://www.w3.org/1999/xlink" width="100px" height="100px" viewBox="0 0 100 100" version="1.1">
<g id="surface1">
<path style=" stroke:none;fill-rule:nonzero;fill:rgb(92.54902%,41.568627%,12.156863%);fill-opacity:1;" d="M 9.996094 30.621094 L 13.660156 30.621094 L 13.660156 51.832031 L 9.996094 51.832031 Z M 89.855469 33.257812 L 79.476562 43.960938 L 77.9375 42.820312 L 89.851562 30.5625 L 89.855469 30.5625 L 89.855469 26.582031 L 69.222656 26.582031 L 69.222656 30.5625 L 84.304688 30.5625 L 74.714844 40.425781 L 69.222656 36.34375 L 69.222656 41.300781 L 71.917969 43.300781 L 69.222656 46.074219 L 69.222656 51.78125 L 75.140625 45.695312 L 76.683594 46.84375 L 71.894531 51.78125 L 77.445312 51.78125 L 79.90625 49.242188 L 83.324219 51.78125 L 89.996094 51.78125 L 82.699219 46.359375 L 89.855469 38.972656 Z M 55.859375 40.945312 C 55.007812 41.828125 54.578125 42.902344 54.578125 44.171875 C 54.578125 44.832031 54.695312 45.453125 54.925781 46.03125 C 55.152344 46.609375 55.515625 47.117188 56.011719 47.558594 C 56.304688 47.816406 56.644531 48.042969 57.03125 48.234375 C 57.417969 48.425781 57.804688 48.558594 58.1875 48.632812 C 58.316406 48.671875 58.441406 48.695312 58.5625 48.703125 C 58.679688 48.710938 58.804688 48.714844 58.933594 48.714844 C 60.238281 48.714844 61.316406 48.273438 62.171875 47.390625 C 63.023438 46.507812 63.449219 45.417969 63.449219 44.128906 C 63.449219 42.914062 63.03125 41.855469 62.199219 40.953125 C 61.363281 40.046875 60.320312 39.597656 59.070312 39.597656 C 57.785156 39.617188 56.714844 40.066406 55.859375 40.945312 Z M 51.136719 36.511719 L 54.496094 36.511719 L 54.496094 38.496094 L 54.550781 38.496094 C 55.121094 37.667969 55.824219 37.054688 56.660156 36.648438 C 57.496094 36.246094 58.425781 36.042969 59.457031 36.042969 C 60.578125 36.042969 61.582031 36.234375 62.472656 36.621094 C 63.363281 37.007812 64.203125 37.640625 64.992188 38.523438 C 65.691406 39.257812 66.21875 40.113281 66.578125 41.085938 C 66.9375 42.058594 67.113281 43.085938 67.113281 44.171875 C 67.113281 46.339844 66.398438 48.230469 64.964844 49.847656 C 63.535156 51.460938 61.695312 52.269531 59.457031 52.269531 C 58.5 52.269531 57.640625 52.105469 56.878906 51.773438 C 56.117188 51.445312 55.441406 50.902344 54.855469 50.148438 L 54.800781 50.121094 L 54.800781 56.871094 L 51.136719 56.871094 Z M 45.488281 44.117188 C 45.488281 42.847656 45.078125 41.777344 44.261719 40.90625 C 43.445312 40.035156 42.386719 39.605469 41.082031 39.625 C 39.738281 39.605469 38.640625 40.046875 37.789062 40.945312 C 36.933594 41.847656 36.507812 42.96875 36.507812 44.308594 C 36.507812 45.558594 36.953125 46.609375 37.84375 47.460938 C 38.734375 48.316406 39.796875 48.734375 41.027344 48.714844 C 42.347656 48.734375 43.421875 48.304688 44.25 47.421875 C 45.074219 46.539062 45.488281 45.445312 45.488281 44.144531 Z M 48.960938 51.773438 L 45.597656 51.773438 L 45.597656 49.707031 L 45.542969 49.707031 C 45.085938 50.367188 44.476562 50.910156 43.726562 51.332031 C 42.972656 51.757812 42.191406 52.039062 41.382812 52.1875 C 41.21875 52.207031 41.046875 52.222656 40.875 52.242188 C 40.699219 52.261719 40.53125 52.269531 40.363281 52.269531 C 39.1875 52.269531 38.125 52.042969 37.167969 51.59375 C 36.214844 51.144531 35.40625 50.527344 34.746094 49.734375 C 34.136719 49 33.667969 48.15625 33.339844 47.199219 C 33.007812 46.246094 32.84375 45.234375 32.84375 44.171875 C 32.84375 43.105469 32.996094 42.121094 33.296875 41.222656 C 33.601562 40.324219 34.101562 39.476562 34.800781 38.6875 C 35.570312 37.789062 36.429688 37.121094 37.375 36.691406 C 38.320312 36.257812 39.355469 36.042969 40.476562 36.042969 C 41.523438 36.042969 42.484375 36.269531 43.367188 36.71875 C 44.25 37.167969 44.992188 37.824219 45.597656 38.6875 L 45.597656 36.511719 L 48.960938 36.511719 Z M 27.75 42.515625 C 27.457031 41.617188 26.921875 40.910156 26.152344 40.394531 C 25.378906 39.882812 24.527344 39.625 23.589844 39.625 L 23.371094 39.625 C 22.488281 39.679688 21.660156 39.964844 20.890625 40.484375 C 20.117188 41.003906 19.605469 41.679688 19.347656 42.515625 Z M 19.402344 45.769531 C 19.679688 46.667969 20.1875 47.382812 20.929688 47.917969 C 21.675781 48.449219 22.503906 48.714844 23.425781 48.714844 C 24.121094 48.714844 24.777344 48.597656 25.394531 48.359375 C 26.007812 48.121094 26.492188 47.796875 26.839844 47.394531 L 30.890625 47.367188 C 30.429688 48.742188 29.5 49.90625 28.09375 50.851562 C 26.6875 51.796875 25.179688 52.269531 23.5625 52.269531 C 21.339844 52.269531 19.445312 51.496094 17.875 49.941406 C 16.304688 48.390625 15.519531 46.503906 15.519531 44.28125 C 15.519531 42.023438 16.296875 40.082031 17.859375 38.46875 C 19.421875 36.851562 21.339844 36.042969 23.617188 36.042969 C 25.804688 36.042969 27.652344 36.84375 29.167969 38.445312 C 30.683594 40.050781 31.441406 41.914062 31.441406 44.039062 C 31.441406 44.277344 31.429688 44.507812 31.398438 44.738281 C 31.371094 44.96875 31.339844 45.191406 31.304688 45.410156 C 31.285156 45.484375 31.273438 45.546875 31.261719 45.605469 C 31.253906 45.660156 31.25 45.714844 31.25 45.769531 Z M 19.402344 45.769531 "/>
<path style=" stroke:none;fill-rule:nonzero;fill:rgb(16.862745%,16.470588%,16.078431%);fill-opacity:1;" d="M 80.34375 60.636719 L 19.648438 60.636719 L 19.648438 73.425781 L 80.34375 73.425781 Z M 80.34375 60.636719 "/>
<path style=" stroke:none;fill-rule:nonzero;fill:rgb(99.607843%,99.607843%,99.607843%);fill-opacity:1;" d="M 75.042969 62.222656 L 72.121094 65.714844 L 70.402344 62.222656 L 67.933594 62.222656 L 66.28125 71.839844 L 68.839844 71.839844 L 69.460938 68.214844 C 69.511719 67.914062 69.5625 67.601562 69.613281 67.277344 C 69.667969 66.953125 69.714844 66.636719 69.757812 66.328125 L 69.78125 66.328125 C 69.902344 66.59375 70.027344 66.855469 70.152344 67.109375 C 70.277344 67.367188 70.410156 67.652344 70.558594 67.960938 L 71.449219 69.78125 L 72.949219 67.988281 C 73.179688 67.703125 73.410156 67.425781 73.632812 67.148438 C 73.855469 66.875 74.082031 66.601562 74.304688 66.328125 L 74.332031 66.328125 C 74.261719 66.699219 74.195312 67.066406 74.128906 67.421875 C 74.066406 67.78125 74 68.152344 73.929688 68.53125 L 73.363281 71.839844 L 76.023438 71.839844 L 77.679688 62.222656 Z M 63.960938 65.863281 C 63.878906 66.019531 63.773438 66.148438 63.644531 66.246094 C 63.488281 66.371094 63.3125 66.453125 63.117188 66.492188 C 62.917969 66.53125 62.679688 66.550781 62.40625 66.550781 L 61.808594 66.550781 L 62.183594 64.398438 L 62.636719 64.398438 C 62.84375 64.398438 63.042969 64.410156 63.230469 64.433594 C 63.421875 64.457031 63.585938 64.511719 63.722656 64.597656 C 63.964844 64.742188 64.085938 64.980469 64.085938 65.316406 C 64.085938 65.519531 64.042969 65.703125 63.960938 65.863281 Z M 66.746094 65.039062 C 66.746094 64.558594 66.648438 64.140625 66.449219 63.777344 C 66.25 63.414062 65.988281 63.117188 65.660156 62.886719 C 65.28125 62.628906 64.851562 62.453125 64.375 62.359375 C 63.898438 62.265625 63.359375 62.222656 62.765625 62.222656 L 59.898438 62.222656 L 58.242188 71.839844 L 60.90625 71.839844 L 61.460938 68.625 L 61.953125 68.625 C 62.589844 68.625 63.210938 68.566406 63.8125 68.445312 C 64.417969 68.328125 64.953125 68.085938 65.429688 67.722656 C 65.875 67.367188 66.207031 66.949219 66.421875 66.464844 C 66.636719 65.984375 66.746094 65.507812 66.746094 65.039062 Z M 55.160156 67.335938 C 55.09375 67.515625 55 67.671875 54.878906 67.800781 C 54.777344 67.914062 54.664062 67.996094 54.539062 68.050781 C 54.410156 68.109375 54.269531 68.136719 54.117188 68.136719 C 53.984375 68.136719 53.871094 68.117188 53.769531 68.074219 C 53.671875 68.03125 53.59375 67.972656 53.527344 67.902344 C 53.460938 67.828125 53.410156 67.738281 53.371094 67.636719 C 53.332031 67.53125 53.3125 67.410156 53.3125 67.273438 C 53.3125 67.089844 53.347656 66.90625 53.417969 66.726562 C 53.484375 66.546875 53.578125 66.390625 53.695312 66.265625 C 53.90625 66.035156 54.15625 65.925781 54.460938 65.925781 C 54.589844 65.925781 54.707031 65.945312 54.804688 65.988281 C 54.902344 66.03125 54.984375 66.085938 55.050781 66.160156 C 55.117188 66.230469 55.167969 66.320312 55.203125 66.425781 C 55.242188 66.535156 55.261719 66.65625 55.261719 66.789062 C 55.261719 66.972656 55.226562 67.15625 55.160156 67.335938 Z M 56.535156 64.707031 C 56.285156 64.476562 55.984375 64.296875 55.644531 64.167969 C 55.308594 64.042969 54.941406 63.980469 54.554688 63.980469 C 54.078125 63.980469 53.636719 64.070312 53.234375 64.25 C 52.835938 64.425781 52.484375 64.675781 52.1875 64.988281 C 51.863281 65.324219 51.617188 65.710938 51.457031 66.136719 C 51.300781 66.558594 51.21875 66.980469 51.21875 67.394531 C 51.21875 67.796875 51.292969 68.171875 51.441406 68.5 C 51.582031 68.832031 51.785156 69.121094 52.042969 69.355469 C 52.292969 69.585938 52.59375 69.765625 52.933594 69.894531 C 53.269531 70.019531 53.636719 70.082031 54.023438 70.082031 C 54.5 70.082031 54.941406 69.992188 55.34375 69.8125 C 55.742188 69.632812 56.09375 69.386719 56.390625 69.074219 C 56.714844 68.738281 56.960938 68.351562 57.117188 67.925781 C 57.277344 67.503906 57.359375 67.082031 57.359375 66.667969 C 57.359375 66.265625 57.285156 65.894531 57.136719 65.558594 C 56.992188 65.230469 56.789062 64.941406 56.535156 64.707031 Z M 46.191406 64.0625 L 45.863281 65.941406 L 47.496094 65.941406 L 46.800781 70 L 48.878906 70 L 49.574219 65.941406 L 51.207031 65.941406 L 51.53125 64.0625 Z M 38.789062 65.714844 L 37.070312 62.222656 L 34.601562 62.222656 L 32.949219 71.839844 L 35.507812 71.839844 L 36.128906 68.214844 C 36.179688 67.914062 36.230469 67.601562 36.28125 67.277344 C 36.332031 66.953125 36.378906 66.636719 36.425781 66.328125 L 36.449219 66.328125 C 36.570312 66.59375 36.691406 66.855469 36.820312 67.109375 C 36.941406 67.367188 37.078125 67.652344 37.226562 67.960938 L 38.117188 69.78125 L 39.617188 67.988281 C 39.847656 67.703125 40.078125 67.425781 40.300781 67.148438 C 40.523438 66.875 40.75 66.601562 40.972656 66.328125 L 41 66.328125 C 40.929688 66.699219 40.863281 67.066406 40.796875 67.421875 C 40.734375 67.78125 40.667969 68.152344 40.597656 68.53125 L 40.027344 71.839844 L 42.691406 71.839844 L 44.34375 62.222656 L 41.707031 62.222656 Z M 27.160156 67.855469 L 27.390625 67.402344 C 27.5625 67.066406 27.742188 66.714844 27.921875 66.347656 C 28.101562 65.980469 28.265625 65.636719 28.414062 65.316406 L 28.4375 65.316406 C 28.480469 65.652344 28.53125 66.007812 28.59375 66.375 C 28.652344 66.742188 28.710938 67.070312 28.761719 67.363281 L 28.851562 67.855469 Z M 27.636719 62.222656 L 22.3125 71.839844 L 25.105469 71.839844 L 26.113281 69.875 L 29.214844 69.875 L 29.5625 71.839844 L 32.339844 71.839844 L 30.261719 62.222656 Z M 27.636719 62.222656 "/>
</g>
</svg>
